# 3ds Max Wavefront OBJ Exporter v0.97b - (c)2007 guruware
# File Created: 24.11.2015 10:14:25

mtllib window.mtl

#
# object Group_001
#

v  -30.9083 -0.0000 0.2729
v  -30.1583 -0.0000 0.2729
v  -30.1583 -0.0000 1.0229
v  -30.9083 -0.0000 1.0229
v  -35.9082 -0.0000 0.2729
v  -35.1582 -0.0000 0.2729
v  -35.1582 -0.0000 1.0229
v  -35.9082 -0.0000 1.0229
v  -35.9082 0.0000 -1.2271
v  -35.1582 0.0000 -1.2271
v  -35.1582 0.0000 -0.4771
v  -35.9082 0.0000 -0.4771
v  -29.2416 -0.0000 0.2729
v  -28.4916 -0.0000 0.2729
v  -28.4916 -0.0000 1.0229
v  -29.2416 -0.0000 1.0229
v  -27.5749 -0.0000 0.2729
v  -26.8249 -0.0000 0.2729
v  -26.8249 -0.0000 1.0229
v  -27.5749 -0.0000 1.0229
v  -34.2416 -0.0000 0.2729
v  -33.4916 -0.0000 0.2729
v  -33.4916 -0.0000 1.0229
v  -34.2416 -0.0000 1.0229
v  -37.5749 -0.0000 0.2729
v  -36.8249 -0.0000 0.2729
v  -36.8249 -0.0000 1.0229
v  -37.5749 -0.0000 1.0229
v  -32.5749 -0.0000 0.2729
v  -31.8249 -0.0000 0.2729
v  -31.8249 -0.0000 1.0229
v  -32.5749 -0.0000 1.0229
v  -37.5749 0.0000 -1.2271
v  -36.8249 0.0000 -1.2271
v  -36.8249 0.0000 -0.4771
v  -37.5749 0.0000 -0.4771
v  -34.2416 0.0000 -1.2271
v  -33.4916 0.0000 -1.2271
v  -33.4916 0.0000 -0.4771
v  -34.2416 0.0000 -0.4771
# 40 vertices

vn 0.0000 -1.0000 -0.0000
# 1 vertex normals

vt 0.0000 0.0000 0.0000
# 1 texture coords

g Group_001
usemtl black
s off
f 1/1/1 2/1/1 3/1/1 4/1/1 
usemtl Putty
f 5/1/1 6/1/1 7/1/1 8/1/1 
usemtl Brown
f 9/1/1 10/1/1 11/1/1 12/1/1 
usemtl Red
f 13/1/1 14/1/1 15/1/1 16/1/1 
usemtl Hartford_Green
f 17/1/1 18/1/1 19/1/1 20/1/1 
usemtl Poplar_White
f 21/1/1 22/1/1 23/1/1 24/1/1 
usemtl Hemlock
f 25/1/1 26/1/1 27/1/1 28/1/1 
usemtl Morning_Sky_Gray
f 29/1/1 30/1/1 31/1/1 32/1/1 
usemtl Tan
f 33/1/1 34/1/1 35/1/1 36/1/1 
usemtl White
f 37/1/1 38/1/1 39/1/1 40/1/1 
# 10 polygons

#
# object Designer_Series_French_Sliding_Door_001
#

v  -38.0291 0.0100 -3.1289
v  -38.0291 0.0100 1.8791
v  -38.0291 87.0100 1.8791
v  -38.0291 87.0100 -3.1289
v  -37.6190 0.2108 -3.1291
v  -37.6190 86.5998 -3.1291
v  -37.2953 86.1939 -2.9659
v  -37.2953 0.2225 -2.9659
v  -1.4624 2.2075 -0.6757
v  -1.4624 2.2075 -0.7138
v  -36.4173 2.2075 -0.7138
v  -36.4173 2.2075 -0.6757
v  -1.4624 86.2261 2.0781
v  36.6940 86.2261 2.0781
v  36.6940 86.2261 2.2253
v  -1.4624 86.2261 2.2253
v  3.5892 9.5063 -0.0463
v  2.7970 81.8383 -0.0463
v  2.7970 8.7141 -0.0463
v  31.7775 8.7141 -0.0463
v  30.9852 9.5063 -0.0463
v  30.9852 9.7407 -0.0463
v  30.9852 81.0460 -0.0463
v  31.7775 81.8383 -0.0463
v  3.5892 81.0460 -0.0463
v  31.7775 8.7141 2.0502
v  2.7970 8.7141 2.0502
v  38.0292 0.0100 3.1291
v  38.0292 0.0100 1.8791
v  38.0292 87.0100 1.8791
v  38.0292 86.2261 3.1285
v  38.0292 87.0100 3.1285
v  3.5892 81.0460 -0.1158
v  3.5892 9.5063 -0.1158
v  0.9381 85.2576 -0.1158
v  36.6940 85.2576 -0.1158
v  30.9852 81.0460 -0.1158
v  36.6940 2.2456 -0.1158
v  30.9852 9.5063 -0.1158
v  0.9381 2.2456 -0.1158
v  38.0292 87.0100 -3.1291
v  -37.6187 87.0100 -3.1289
v  36.6940 2.3029 0.7249
v  36.6940 1.8868 2.2253
v  36.6940 85.5702 2.0781
v  36.6940 85.2070 0.7098
v  -32.1527 81.8383 -2.8964
v  -3.9919 81.8383 -2.8964
v  -3.9919 81.8383 -0.8892
v  -32.1527 81.8383 -0.8892
v  37.2953 85.2918 -2.9659
v  37.2953 2.2075 -2.9659
v  37.2953 2.2075 -0.6757
v  37.2953 2.2218 -0.4647
v  37.2953 85.2789 -0.4647
v  37.2953 85.2918 -0.6751
v  -31.3604 81.0460 -2.9659
v  -4.7842 81.0460 -2.9659
v  -4.7842 81.0460 -2.8964
v  -31.3604 81.0460 -2.8964
v  36.6940 0.9446 2.2253
v  36.6940 0.9446 3.1291
v  36.6940 86.2261 3.1291
v  -31.4855 81.1710 -0.8892
v  -31.4855 9.3813 -0.8892
v  -4.6592 81.1710 -0.8892
v  -3.9919 8.7141 -0.8892
v  -4.6592 9.7407 -0.8892
v  -4.6592 9.3813 -0.8892
v  -32.1527 8.7141 -0.8892
v  37.2953 0.2225 -2.9659
v  37.6190 0.2108 -3.1291
v  -36.4173 0.2225 -2.9659
v  37.2953 0.2252 -2.9278
v  -36.4173 0.2252 -2.9278
v  -36.4173 85.2918 -0.7138
v  -1.4624 85.2918 -0.7138
v  -1.4624 85.2918 -0.6751
v  -36.4173 85.2918 -0.6751
v  3.4642 9.3813 2.2253
v  -1.4624 1.8868 2.2253
v  31.1102 9.3813 2.2253
v  31.1102 81.1710 2.2253
v  3.4642 81.1710 2.2253
v  37.2953 0.2252 -2.9659
v  37.2953 86.1939 -2.9659
v  37.6190 86.5998 -3.1291
v  2.7970 81.8383 2.0502
v  -1.4624 2.3029 0.7249
v  -1.4624 85.5702 2.0781
v  -1.4624 85.2070 0.7098
v  -36.6940 1.8868 2.2253
v  -36.6940 0.9446 2.2253
v  3.4642 81.1710 2.0502
v  31.1102 81.1710 2.0502
v  0.9381 85.2918 -0.6751
v  36.6940 87.0100 3.1285
v  -38.0291 87.0100 3.1291
v  -36.6940 0.9446 3.1291
v  -36.6940 86.2261 3.1291
v  -36.6940 1.9277 2.0780
v  -36.6940 86.2261 2.0781
v  -36.4173 0.2252 -2.9659
v  -3.9919 8.7141 -2.8964
v  -36.4173 2.2075 -2.9659
v  -36.4173 1.8240 -2.9659
v  -37.2756 84.3094 -2.9659
v  -31.4855 9.3813 -0.7138
v  -4.6592 9.3813 -0.7138
v  -4.6592 81.1710 -0.7138
v  -31.4855 81.1710 -0.7138
v  3.4642 9.3813 2.0502
v  31.7775 81.8383 2.0502
v  31.1102 9.9126 2.0502
v  31.1102 9.3813 2.0502
v  -36.4173 1.9277 2.0780
v  -36.4173 85.5702 2.0781
v  -32.1527 8.7141 -2.8964
v  36.6940 2.2218 -0.4647
v  36.6940 85.2789 -0.4647
v  -31.3604 9.5063 -2.8964
v  -4.7842 9.5063 -2.8964
v  -4.7842 9.9126 -2.8964
v  0.9381 2.2075 -0.6757
v  0.9381 2.2075 -0.7138
v  0.9381 85.2918 -0.7138
v  -36.4173 2.3029 0.7249
v  -36.6940 0.0100 3.1291
v  -38.0291 0.0100 3.1291
v  0.9381 2.2075 -2.9659
v  0.9381 85.2918 -2.9659
v  -37.6190 86.6011 -3.1291
v  38.0292 0.0100 -3.1291
v  -37.6187 0.0100 -3.1289
v  -36.4173 85.2070 0.7098
v  -38.0291 0.9446 3.1285
v  -36.4173 0.2238 -2.9659
v  -4.7842 9.5063 -2.9659
v  -31.3604 9.5063 -2.9659
# 139 vertices

vn -1.0000 0.0000 0.0000
vn 0.4502 0.0000 -0.8929
vn 0.0000 1.0000 0.0000
vn -0.0000 -1.0000 -0.0000
vn 0.0000 -0.0000 1.0000
vn 1.0000 -0.0000 0.0000
vn -0.0000 0.0000 -1.0000
vn 0.0000 0.9975 -0.0712
vn -0.4502 0.0000 -0.8929
vn -0.0000 -0.9981 -0.0611
vn 0.0000 0.9636 0.2672
vn 0.0000 0.9977 -0.0680
vn 0.0000 -0.9665 0.2565
vn -0.0000 -0.3730 -0.9278
# 14 vertex normals

vt 0.0000 0.0000 0.0000
# 1 texture coords

g Designer_Series_French_Sliding_Door_001
usemtl Color_000
s off
f 41/2/2 42/2/2 43/2/2 44/2/2 
f 45/2/3 46/2/3 47/2/3 48/2/3 
f 49/2/4 50/2/4 51/2/4 52/2/4 
f 53/2/5 54/2/5 55/2/5 56/2/5 
f 57/2/6 58/2/6 59/2/6 60/2/6 
f 61/2/6 57/2/6 60/2/6 62/2/6 
f 63/2/6 62/2/6 60/2/6 64/2/6 
f 65/2/6 63/2/6 64/2/6 58/2/6 
f 65/2/6 58/2/6 57/2/6 
f 66/2/4 60/2/4 59/2/4 67/2/4 
f 68/2/7 69/2/7 70/2/7 71/2/7 
f 71/2/7 70/2/7 72/2/7 
f 73/2/8 74/2/8 75/2/8 76/2/8 
f 77/2/8 73/2/8 76/2/8 78/2/8 
f 79/2/8 77/2/8 78/2/8 74/2/8 
f 74/2/8 78/2/8 80/2/8 75/2/8 
f 70/2/4 81/2/4 82/2/4 44/2/4 
f 70/2/4 44/2/4 43/2/4 
f 83/2/2 84/2/2 55/2/2 85/2/2 
f 85/2/2 55/2/2 54/2/2 
f 83/2/2 85/2/2 86/2/2 76/2/2 
f 83/2/2 76/2/2 78/2/2 
f 87/2/5 88/2/5 89/2/5 90/2/5 
f 91/2/2 92/2/2 93/2/2 94/2/2 
f 91/2/2 94/2/2 95/2/2 96/2/2 
f 97/2/5 98/2/5 99/2/5 100/2/5 
f 101/2/2 102/2/2 103/2/2 84/2/2 
f 84/2/2 103/2/2 55/2/2 
f 104/2/8 105/2/8 90/2/8 89/2/8 
f 106/2/8 104/2/8 89/2/8 107/2/8 
f 108/2/8 106/2/8 107/2/8 109/2/8 
f 105/2/8 109/2/8 107/2/8 110/2/8 
f 105/2/8 110/2/8 90/2/8 
f 111/2/9 112/2/9 45/2/9 113/2/9 
f 113/2/9 45/2/9 48/2/9 
f 114/2/9 111/2/9 113/2/9 115/2/9 
f 116/2/5 117/2/5 118/2/5 119/2/5 
f 120/2/6 56/2/6 121/2/6 84/2/6 
f 122/2/6 120/2/6 84/2/6 123/2/6 
f 123/2/6 84/2/6 55/2/6 124/2/6 
f 124/2/6 55/2/6 56/2/6 120/2/6 
f 112/2/10 111/2/10 125/2/10 92/2/10 
f 112/2/10 92/2/10 91/2/10 126/2/10 
f 112/2/10 126/2/10 127/2/10 
f 128/2/7 67/2/7 59/2/7 58/2/7 
f 129/2/2 121/2/2 56/2/2 130/2/2 
f 130/2/2 56/2/2 53/2/2 
f 129/2/2 130/2/2 131/2/2 117/2/2 
f 129/2/2 117/2/2 50/2/2 49/2/2 
f 117/2/2 131/2/2 118/2/2 
f 132/2/6 133/2/6 101/2/6 121/2/6 
f 121/2/6 101/2/6 84/2/6 
f 134/2/5 135/2/5 123/2/5 124/2/5 
f 75/2/11 76/2/11 86/2/11 131/2/11 
f 75/2/11 131/2/11 118/2/11 136/2/11 
f 73/2/5 77/2/5 63/2/5 65/2/5 
f 72/2/4 70/2/4 43/2/4 137/2/4 
f 137/2/4 43/2/4 138/2/4 
f 139/2/7 133/2/7 132/2/7 140/2/7 
f 140/2/7 132/2/7 141/2/7 142/2/7 
f 143/2/5 125/2/5 114/2/5 115/2/5 
f 144/2/2 107/2/2 89/2/2 88/2/2 
f 84/2/12 83/2/12 129/2/12 121/2/12 
f 57/2/7 74/2/7 73/2/7 65/2/7 
f 145/2/8 146/2/8 147/2/8 
f 102/2/4 101/2/4 133/2/4 139/2/4 
f 148/2/6 116/2/6 51/2/6 50/2/6 
f 149/2/6 148/2/6 50/2/6 150/2/6 
f 150/2/6 50/2/6 117/2/6 151/2/6 
f 151/2/6 117/2/6 116/2/6 148/2/6 
f 134/2/8 152/2/8 128/2/8 153/2/8 
f 135/2/8 134/2/8 153/2/8 66/2/8 
f 154/2/8 135/2/8 66/2/8 155/2/8 
f 152/2/8 155/2/8 66/2/8 67/2/8 
f 152/2/8 67/2/8 128/2/8 
f 142/2/6 141/2/6 156/2/6 157/2/6 
f 53/2/6 142/2/6 157/2/6 130/2/6 
f 107/2/4 144/2/4 158/2/4 110/2/4 
f 120/2/7 152/2/7 134/2/7 124/2/7 
f 94/2/8 159/2/8 160/2/8 95/2/8 
f 161/2/6 87/2/6 158/2/6 144/2/6 
f 162/2/6 161/2/6 144/2/6 163/2/6 
f 99/2/6 163/2/6 144/2/6 88/2/6 
f 100/2/6 99/2/6 88/2/6 87/2/6 
f 100/2/6 87/2/6 161/2/6 
f 164/2/7 165/2/7 166/2/7 80/2/7 
f 75/2/7 80/2/7 166/2/7 136/2/7 
f 129/2/13 49/2/13 52/2/13 167/2/13 
f 131/2/14 86/2/14 85/2/14 130/2/14 
f 58/2/5 64/2/5 153/2/5 128/2/5 
f 42/2/5 69/2/5 68/2/5 168/2/5 
f 42/2/5 168/2/5 169/2/5 
f 165/2/7 170/2/7 171/2/7 166/2/7 
f 110/2/7 158/2/7 87/2/7 90/2/7 
f 146/2/8 143/2/8 147/2/8 
f 172/2/8 46/2/8 44/2/8 82/2/8 
f 172/2/8 82/2/8 127/2/8 46/2/8 
f 127/2/8 82/2/8 81/2/8 173/2/8 
f 112/2/8 127/2/8 173/2/8 174/2/8 
f 45/2/8 112/2/8 174/2/8 44/2/8 
f 44/2/8 174/2/8 41/2/8 
f 45/2/8 44/2/8 46/2/8 
f 136/2/11 96/2/11 95/2/11 160/2/11 
f 75/2/11 136/2/11 160/2/11 76/2/11 
f 160/2/2 159/2/2 78/2/2 76/2/2 
f 119/2/11 118/2/11 131/2/11 175/2/11 
f 53/2/6 130/2/6 85/2/6 54/2/6 
f 139/2/6 168/2/6 68/2/6 102/2/6 
f 103/2/6 102/2/6 68/2/6 137/2/6 
f 72/2/6 137/2/6 68/2/6 71/2/6 
f 140/2/6 103/2/6 137/2/6 138/2/6 
f 168/2/6 140/2/6 138/2/6 176/2/6 
f 168/2/6 176/2/6 169/2/6 
f 140/2/6 168/2/6 139/2/6 
f 80/2/13 164/2/13 49/2/13 129/2/13 
f 80/2/13 129/2/13 83/2/13 78/2/13 
f 113/2/8 48/2/8 47/2/8 147/2/8 
f 113/2/8 147/2/8 143/2/8 177/2/8 
f 154/2/2 155/2/2 122/2/2 123/2/2 
f 154/2/2 123/2/2 135/2/2 
f 115/2/7 113/2/7 177/2/7 143/2/7 
f 79/2/2 61/2/2 62/2/2 77/2/2 
f 77/2/2 62/2/2 63/2/2 
f 171/2/5 91/2/5 96/2/5 166/2/5 
f 166/2/5 96/2/5 136/2/5 
f 178/2/2 162/2/2 163/2/2 98/2/2 
f 98/2/2 163/2/2 99/2/2 
f 125/2/8 143/2/8 146/2/8 145/2/8 
f 170/2/8 125/2/8 145/2/8 179/2/8 
f 97/2/8 179/2/8 145/2/8 147/2/8 
f 171/2/8 97/2/8 147/2/8 47/2/8 
f 171/2/8 47/2/8 126/2/8 91/2/8 
f 98/2/8 97/2/8 171/2/8 170/2/8 
f 178/2/8 98/2/8 170/2/8 179/2/8 
f 125/2/8 170/2/8 92/2/8 
f 94/2/13 93/2/13 164/2/13 159/2/13 
f 159/2/13 164/2/13 80/2/13 78/2/13 
f 47/2/15 46/2/15 127/2/15 126/2/15 
f 104/2/5 106/2/5 150/2/5 151/2/5 
f 162/2/4 178/2/4 179/2/4 161/2/4 
f 161/2/7 179/2/7 97/2/7 100/2/7 
f 121/2/12 129/2/12 167/2/12 156/2/12 
f 121/2/12 156/2/12 141/2/12 132/2/12 
f 52/2/7 51/2/7 116/2/7 167/2/7 
f 175/2/7 167/2/7 116/2/7 119/2/7 
f 167/2/7 175/2/7 157/2/7 156/2/7 
f 56/2/5 55/2/5 103/2/5 140/2/5 
f 56/2/5 140/2/5 142/2/5 53/2/5 
f 43/2/2 42/2/2 169/2/2 176/2/2 
f 43/2/2 176/2/2 138/2/2 
f 122/2/4 155/2/4 152/2/4 120/2/4 
f 125/2/2 111/2/2 114/2/2 
f 69/2/7 173/2/7 81/2/7 70/2/7 
f 109/2/2 149/2/2 150/2/2 108/2/2 
f 108/2/2 150/2/2 106/2/2 
f 61/2/4 79/2/4 74/2/4 57/2/4 
f 149/2/4 109/2/4 105/2/4 148/2/4 
f 174/2/5 173/2/5 69/2/5 41/2/5 
f 41/2/5 69/2/5 42/2/5 
f 60/2/2 66/2/2 153/2/2 64/2/2 
f 148/2/7 105/2/7 104/2/7 151/2/7 
f 93/2/4 92/2/4 170/2/4 165/2/4 
f 93/2/4 165/2/4 164/2/4 
f 175/2/14 131/2/14 130/2/14 157/2/14 
usemtl Translucent_Glass_Blue
f 162/2/8 161/2/8 100/2/8 163/2/8 
f 163/2/8 100/2/8 99/2/8 
f 104/2/6 105/2/6 109/2/6 108/2/6 
f 104/2/6 108/2/6 106/2/6 
f 61/2/8 57/2/8 65/2/8 63/2/8 
f 61/2/8 63/2/8 62/2/8 
f 134/2/6 152/2/6 155/2/6 154/2/6 
f 134/2/6 154/2/6 135/2/6 
# 136 polygons - 36 triangles

