# Blender v2.78 (sub 0) OBJ File: ''
# www.blender.org
mtllib desk.mtl
o desk2
v -63.000000 30.027000 -78.000000
v -62.973000 30.559999 -78.000000
v -61.644001 30.367001 -78.000000
v -61.609001 29.975000 -78.000000
v -61.395000 29.590000 -78.000000
v -62.433998 29.042000 -78.000000
v -61.012001 29.226000 -78.000000
v -60.474998 28.899000 -78.000000
v -61.233002 28.240999 -78.000000
v -61.500999 30.750999 -78.000000
v -62.508999 31.552000 -78.000000
v -61.185001 31.113001 -78.000000
v -62.027000 31.983999 -78.000000
v -61.367001 32.354000 -78.000000
v -61.883999 28.617001 -78.000000
v -60.565647 27.999767 -78.000000
v -60.443359 28.885845 -78.000000
v -60.707001 31.437000 -78.000000
v -60.622002 32.667999 -78.000000
v -60.085999 31.712999 -78.000000
v -62.856998 31.061001 -78.000000
v -62.791000 29.511000 -78.000000
v -60.085999 61.713001 -78.000000
v -60.085999 61.713001 -62.999001
v -60.707001 61.437000 -62.999001
v -63.000000 60.027000 -62.999001
v -63.000000 60.027000 -78.000000
v -62.791000 59.511002 -78.000000
v -62.973000 60.560001 -78.000000
v -61.233002 28.240999 -62.999001
v -61.883999 28.617001 -62.999001
v -62.433998 29.042000 -62.999001
v -60.622002 32.667999 -62.999001
v -60.474998 28.899000 -62.999001
v -60.443359 28.885845 -62.999001
v -59.798000 32.870998 -62.999001
v -59.798000 32.870998 -78.000000
v -62.791000 29.511000 -62.999001
v -63.000000 30.027000 -62.999001
v -62.973000 30.559999 -62.999001
v -60.622002 62.667999 -62.999001
v -59.798000 62.870998 -62.999001
v -62.856998 31.061001 -62.999001
v -62.508999 31.552000 -62.999001
v -62.027000 31.983999 -62.999001
v -62.027000 61.984001 -62.999001
v -61.185001 61.112999 -62.999001
v -61.367001 62.354000 -62.999001
v -61.500999 60.750999 -62.999001
v -62.508999 61.551998 -62.999001
v -62.856998 61.061001 -62.999001
v -62.973000 60.560001 -62.999001
v -61.644001 60.367001 -62.999001
v -61.609001 59.974998 -62.999001
v -62.433998 59.042000 -62.999001
v -61.395000 59.590000 -62.999001
v -61.233002 58.241001 -62.999001
v -61.012001 59.226002 -62.999001
v -61.883999 58.617001 -62.999001
v -60.474998 58.898998 -62.999001
v -60.565647 57.999767 -62.999001
v -60.443359 58.885845 -62.999001
v -62.791000 59.511002 -62.999001
v -61.185001 31.113001 -62.999001
v -61.644001 30.367001 -62.999001
v -60.707001 31.437000 -62.999001
v -60.085999 31.712999 -62.999001
v -61.367001 32.354000 -62.999001
v -61.609001 29.975000 -62.999001
v -61.395000 29.590000 -62.999001
v -61.012001 29.226000 -62.999001
v -60.565647 27.999767 -62.999001
v -61.500999 30.750999 -62.999001
v -59.347000 61.929001 -78.000000
v -59.798000 62.870998 -78.000000
v -60.622002 62.667999 -78.000000
v -62.027000 61.984001 -78.000000
v -61.367001 62.354000 -78.000000
v -61.185001 61.112999 -78.000000
v -60.707001 61.437000 -78.000000
v -61.644001 60.367001 -78.000000
v -62.856998 61.061001 -78.000000
v -61.500999 60.750999 -78.000000
v -62.508999 61.551998 -78.000000
v -61.883999 58.617001 -78.000000
v -62.433998 59.042000 -78.000000
v -61.395000 59.590000 -78.000000
v -61.012001 59.226002 -78.000000
v -60.474998 58.898998 -78.000000
v -61.233002 58.241001 -78.000000
v -60.443359 58.885845 -78.000000
v -60.565647 57.999767 -78.000000
v -61.609001 59.974998 -78.000000
v -59.000000 32.975700 -62.999001
v -59.347000 31.929001 -62.999001
v -59.000000 62.975700 -62.999001
v -59.000000 62.975700 -78.000000
v -59.500000 61.001999 -42.000000
v -59.500000 60.001999 -42.000000
v -59.000000 60.001999 -42.000000
v -59.000000 61.001999 -42.000000
v -59.347000 61.929001 -62.999001
v -59.000000 61.990799 -62.999001
v -59.000000 31.990801 -62.999001
v -59.000000 61.001999 -100.000000
v -59.000000 60.001999 -100.000000
v -59.500000 60.001999 -100.000000
v -59.500000 61.001999 -100.000000
v -59.000000 61.990799 -78.000000
v -59.000000 31.990801 -78.000000
v -59.347000 31.929001 -78.000000
v -59.000000 32.975700 -78.000000
v -59.000000 31.002001 -42.000000
v -59.000000 31.002001 -100.000000
v -59.500000 31.002001 -100.000000
v -59.500000 31.002001 -42.000000
v -59.000000 30.002001 -42.000000
v -59.500000 30.002001 -42.000000
v -59.500000 30.002001 -100.000000
v -59.000000 30.002001 -100.000000
v -59.000000 1.000000 -100.000000
v -59.000000 1.000000 -42.000000
v -59.000000 0.000000 69.557999
v -59.000000 83.000000 77.016998
v -59.000000 83.000000 69.557999
v -59.000000 0.000000 77.016998
v -53.000000 0.000000 77.016998
v -53.000000 0.000000 69.557999
v -13.000000 83.000000 -100.000000
v -13.000000 1.000000 -100.000000
v -59.000000 83.000000 -100.000000
v -54.000000 82.000000 -42.000000
v -54.000000 82.000000 68.000000
v -21.000000 82.000000 68.000000
v -54.000000 57.000000 -42.000000
v -54.000000 57.000000 68.000000
v -13.000000 1.000000 -42.000000
v -59.000000 83.000000 -42.000000
v -53.000000 83.000000 69.557999
v -53.000000 83.000000 77.016998
v 50.000000 83.000000 -100.000000
v 50.000000 0.000000 -100.000000
v 50.000000 0.000000 -92.542000
v 50.000000 83.000000 -92.542000
v 50.000000 83.000000 69.557999
v 50.000000 0.000000 69.557999
v 50.000000 0.000000 77.016998
v 50.000000 83.000000 77.016998
v 56.000000 0.000000 -92.542000
v 56.000000 0.000000 -100.000000
v 56.000000 0.000000 77.016998
v 56.000000 0.000000 69.557999
v 56.000000 83.000000 -100.000000
v 56.000000 83.000000 -92.542000
v 56.000000 83.000000 69.557999
v 56.000000 83.000000 77.016998
v 57.000000 83.000000 78.000000
v 57.000000 83.000000 -101.000000
v -60.000000 83.000000 -101.000000
v -13.000000 83.000000 -42.000000
v -60.000000 83.000000 78.000000
v 57.000000 91.000000 -101.000000
v -60.000000 91.000000 -101.000000
v -60.000000 91.000000 78.000000
v 57.000000 91.000000 78.000000
v -21.000000 57.000000 68.000000
v -21.000000 57.000000 -42.000000
v -21.000000 82.000000 -42.000000
vn -0.6652 -0.3394 -0.6651
vn -0.6760 0.2933 -0.6760
vn 0.6793 -0.2775 -0.6793
vn 0.5960 0.5381 -0.5960
vn 0.5774 0.5774 -0.5773
vn -0.5773 -0.5773 -0.5774
vn 0.5773 0.5773 -0.5774
vn 0.5774 0.5773 -0.5773
vn -0.5773 -0.5774 -0.5773
vn 0.5774 -0.5773 -0.5774
vn -0.5774 0.5774 -0.5773
vn 0.5774 -0.5774 -0.5773
vn -0.5773 0.5773 -0.5774
vn -0.5774 0.5773 -0.5773
vn -0.5773 -0.5774 -0.5774
vn 0.5773 -0.5773 -0.5774
vn 0.5773 -0.5774 -0.5774
vn -0.5719 0.5801 -0.5801
vn -0.5773 0.5774 -0.5773
vn -0.5774 -0.5773 -0.5774
vn 0.5773 -0.5774 -0.5773
vn 0.5774 -0.5773 0.5774
vn 0.5773 -0.5774 0.5773
vn -0.6651 -0.3393 0.6652
vn -0.6651 -0.3394 -0.6651
vn -0.5773 -0.5773 0.5774
vn -0.5773 -0.5774 0.5774
vn -0.5774 -0.5774 0.5773
vn -0.5719 0.5801 0.5801
vn 0.5773 0.5774 0.5773
vn 0.5773 0.5774 0.5774
vn -0.3795 0.6542 0.6542
vn -0.3795 0.6542 -0.6542
vn -0.5774 -0.5773 0.5774
vn -0.6651 -0.3394 0.6651
vn -0.6760 0.2933 0.6760
vn -0.5774 0.5774 0.5773
vn -0.5773 0.5773 0.5774
vn -0.5773 0.5774 0.5774
vn -0.5774 0.5773 0.5774
vn 0.5774 -0.5774 0.5773
vn 0.6793 -0.2775 0.6793
vn 0.5960 0.5381 0.5960
vn -0.5773 -0.5774 0.5773
vn 0.5774 0.5773 0.5773
vn 0.5775 0.5773 0.5773
vn 0.5774 -0.5773 0.5773
vn 0.6793 -0.2775 0.6794
vn -0.5773 0.5774 0.5773
vn 0.5774 0.5773 0.5774
vn 0.5773 0.5773 0.5774
vn 0.4517 -0.6308 -0.6308
vn -0.5773 0.5774 -0.5774
vn 0.5774 0.5773 -0.5774
vn 0.5773 0.5774 -0.5774
vn 0.4518 -0.6309 0.6308
vn -0.5774 0.5774 0.5774
vn 0.4517 -0.6309 0.6308
vn -0.5774 -0.5774 -0.5774
vn -0.5774 -0.5774 -0.5773
vn 0.4517 -0.6309 -0.6308
vn -0.5774 -0.5773 0.5773
vn -0.5774 -0.5774 0.5774
vn 0.5774 -0.5774 0.5774
vn 0.5774 -0.5774 -0.5774
vn 0.5774 0.5774 0.5774
vn 0.5773 -0.5773 0.5774
vn 0.5774 -0.5774 -0.5772
vn 0.5773 -0.5774 0.5774
vn 0.5775 -0.5773 -0.5773
vn 0.5774 -0.5773 -0.5773
vn 0.5774 0.5774 -0.5774
vn -0.5774 0.5774 -0.5774
usemtl material_0
s 1
f 1//1 2//2 3//3
f 4//4 5//5 6//6
f 7//7 8//8 9//9
f 10//10 11//11 12//12
f 13//13 14//14 12//12
f 7//7 15//15 5//5
f 16//16 9//9 8//8
f 17//8 16//16 8//8
f 18//17 12//12 14//14
f 14//14 19//18 18//17
f 20//16 18//17 19//18
f 11//11 10//10 21//19
f 13//13 12//12 11//11
f 10//10 3//3 21//19
f 2//2 21//19 3//3
f 1//1 3//3 4//4
f 6//6 22//20 4//4
f 1//1 4//4 22//20
f 6//6 5//5 15//15
f 15//15 7//7 9//9
f 23//21 24//22 25//23
f 26//24 27//25 28//20
f 27//25 26//24 29//2
f 30//26 31//27 15//15
f 31//27 32//28 15//15
f 33//29 19//18 14//14
f 34//30 8//8 7//7
f 8//8 35//31 17//8
f 33//29 36//32 37//33
f 6//6 15//15 32//28
f 6//6 32//28 22//20
f 38//34 22//20 32//28
f 38//34 39//35 22//20
f 1//1 22//20 39//35
f 1//1 39//35 2//2
f 40//36 2//2 39//35
f 41//29 24//22 42//32
f 43//37 21//19 2//2
f 43//37 2//2 40//36
f 21//19 43//37 11//11
f 44//38 11//11 43//37
f 44//38 45//39 11//11
f 13//13 11//11 45//39
f 46//39 47//23 48//40
f 48//40 25//23 41//29
f 49//41 50//40 51//37
f 51//37 52//36 53//42
f 54//43 55//28 56//30
f 24//22 41//29 25//23
f 25//23 48//40 47//23
f 46//39 50//40 47//23
f 49//41 47//23 50//40
f 57//44 58//30 59//27
f 56//30 59//27 58//30
f 58//30 57//44 60//45
f 57//44 61//22 60//45
f 62//46 60//45 61//22
f 52//36 26//24 53//42
f 53//42 49//41 51//37
f 54//43 53//42 26//24
f 63//34 54//43 26//24
f 55//28 54//43 63//34
f 59//27 56//30 55//28
f 45//39 44//38 64//47
f 40//36 39//35 65//48
f 66//41 67//22 33//29
f 64//47 66//41 68//49
f 68//49 45//39 64//47
f 38//34 32//28 69//43
f 70//50 31//27 71//51
f 71//51 30//26 34//30
f 35//31 34//30 72//23
f 68//49 66//41 33//29
f 36//32 33//29 67//22
f 44//38 43//37 73//41
f 73//41 64//47 44//38
f 65//48 73//41 43//37
f 43//37 40//36 65//48
f 69//43 65//48 39//35
f 39//35 38//34 69//43
f 70//50 69//43 32//28
f 72//23 34//30 30//26
f 31//27 70//50 32//28
f 30//26 71//51 31//27
f 74//52 23//21 75//33
f 76//18 75//33 23//21
f 77//53 78//11 79//16
f 80//12 79//16 78//11
f 81//3 82//11 83//16
f 83//16 84//13 79//16
f 78//11 76//18 80//12
f 85//15 86//6 87//54
f 88//55 85//15 87//54
f 89//8 90//9 88//55
f 91//8 92//17 89//8
f 90//9 89//8 92//17
f 85//15 88//55 90//9
f 84//13 83//16 82//11
f 29//2 82//11 81//3
f 77//53 79//16 84//13
f 27//25 29//2 81//3
f 27//25 81//3 93//4
f 93//4 87//54 86//6
f 86//6 28//20 93//4
f 27//25 93//4 28//20
f 94//40 36//32 95//56
f 23//21 80//12 76//18
f 79//16 49//41 83//16
f 83//16 53//42 81//3
f 81//3 53//42 93//4
f 80//12 23//21 25//23
f 47//23 79//16 25//23
f 19//18 37//33 20//16
f 88//55 87//54 56//30
f 60//45 89//8 88//55
f 91//8 89//8 60//45
f 84//13 50//40 77//53
f 78//11 77//53 48//40
f 46//39 48//40 77//53
f 41//29 76//18 78//11
f 41//29 78//11 48//40
f 42//32 75//33 76//18
f 96//37 97//19 42//32
f 90//9 92//17 61//22
f 86//6 85//15 55//28
f 63//34 28//20 55//28
f 86//6 55//28 28//20
f 28//20 63//34 26//24
f 52//36 51//37 29//2
f 61//22 91//8 62//46
f 61//22 92//17 91//8
f 79//16 47//23 49//41
f 83//16 49//41 53//42
f 53//42 54//43 93//4
f 80//12 25//23 79//16
f 93//4 54//43 87//54
f 87//54 54//43 56//30
f 88//55 56//30 58//30
f 88//55 58//30 60//45
f 91//8 60//45 62//46
f 82//11 51//37 84//13
f 50//40 84//13 51//37
f 46//39 77//53 50//40
f 42//32 76//18 41//29
f 23//21 74//52 24//22
f 61//22 57//44 90//9
f 85//15 90//9 59//27
f 57//44 59//27 90//9
f 59//27 55//28 85//15
f 29//2 26//24 52//36
f 82//11 29//2 51//37
f 98//57 99//28 100//44
f 98//57 100//44 101//38
f 102//58 103//26 96//37
f 96//37 42//32 102//58
f 24//22 102//58 42//32
f 36//32 67//22 95//56
f 104//26 94//40 95//56
f 105//14 106//6 107//59
f 105//14 107//59 108//11
f 74//52 97//19 109//60
f 75//33 97//19 74//52
f 110//60 111//61 112//11
f 20//16 37//33 111//61
f 37//33 112//11 111//61
f 103//26 74//52 109//60
f 75//33 42//32 97//19
f 102//58 74//52 103//26
f 102//58 24//22 74//52
f 101//38 105//14 108//11
f 98//57 101//38 108//11
f 106//6 100//44 99//28
f 107//59 106//6 99//28
f 37//33 94//40 112//11
f 110//60 104//26 111//61
f 95//56 111//61 104//26
f 113//38 114//14 115//11
f 116//57 113//38 115//11
f 117//28 118//62 119//9
f 117//28 119//9 120//6
f 116//57 118//62 117//28
f 116//57 117//28 113//38
f 114//14 120//6 119//9
f 114//14 119//9 115//11
f 45//39 14//14 13//13
f 68//49 14//14 45//39
f 33//29 14//14 68//49
f 72//23 16//16 35//31
f 17//8 35//31 16//16
f 12//12 73//41 10//10
f 3//3 10//10 65//48
f 73//41 65//48 10//10
f 69//43 4//4 65//48
f 3//3 65//48 4//4
f 70//50 5//5 69//43
f 18//17 20//16 66//41
f 67//22 66//41 20//16
f 12//12 18//17 64//47
f 66//41 64//47 18//17
f 73//41 12//12 64//47
f 4//4 69//43 5//5
f 70//50 71//51 5//5
f 7//7 5//5 71//51
f 71//51 34//30 7//7
f 8//8 34//30 35//31
f 16//16 72//23 30//26
f 16//16 30//26 9//9
f 30//26 15//15 9//9
f 19//18 33//29 37//33
f 94//40 37//33 36//32
f 67//22 111//61 95//56
f 20//16 111//61 67//22
f 107//59 99//28 108//11
f 108//11 99//28 98//57
f 118//62 116//57 115//11
f 115//11 119//9 118//62
usemtl material_1
f 94//40 100//44 112//11
f 110//60 113//38 104//26
f 120//6 121//59 122//63
f 120//6 122//63 117//28
f 123//59 124//62 125//15
f 124//62 123//59 126//63
f 127//64 126//63 123//59
f 127//64 123//59 128//65
f 129//12 130//10 114//14
f 114//14 106//6 129//12
f 106//6 105//14 129//12
f 131//6 129//12 105//14
f 132//40 133//57 134//66
f 132//40 135//44 136//63
f 132//40 136//63 133//57
f 136//63 134//66 133//57
f 100//44 113//38 135//44
f 113//38 117//28 137//67
f 122//63 137//67 117//28
f 132//40 101//38 135//44
f 138//28 101//38 132//40
f 101//38 100//44 135//44
f 123//59 139//68 128//65
f 125//15 139//68 123//59
f 124//62 126//63 140//69
f 127//64 140//69 126//63
f 141//15 142//59 143//63
f 141//15 143//63 144//62
f 145//6 146//59 147//63
f 145//6 147//63 148//28
f 149//64 143//63 142//59
f 149//64 142//59 150//65
f 151//64 147//63 146//59
f 151//64 146//59 152//65
f 153//70 150//65 142//59
f 153//70 142//59 141//15
f 144//62 143//63 149//64
f 144//62 149//64 154//69
f 155//71 152//65 146//59
f 155//71 146//59 145//6
f 148//28 147//63 151//64
f 148//28 151//64 156//67
f 157//64 156//67 155//71
f 157//64 155//71 154//69
f 153//70 158//17 154//69
f 157//64 154//69 158//17
f 159//15 158//17 129//12
f 144//62 145//6 160//69
f 139//68 160//69 145//6
f 140//69 139//68 145//6
f 145//6 148//28 140//69
f 157//64 140//69 148//28
f 131//6 159//15 129//12
f 160//69 129//12 144//62
f 138//28 160//69 139//68
f 141//15 144//62 129//12
f 138//28 125//15 161//34
f 161//34 159//15 138//28
f 125//15 124//62 161//34
f 131//6 138//28 159//15
f 139//68 125//15 138//28
f 124//62 140//69 161//34
f 157//64 161//34 140//69
f 141//15 129//12 158//17
f 153//70 141//15 158//17
f 155//71 145//6 144//62
f 155//71 144//62 154//69
f 157//64 148//28 156//67
f 162//72 158//17 159//15
f 162//72 159//15 163//73
f 164//57 161//34 157//64
f 164//57 157//64 165//66
f 134//66 166//64 167//69
f 134//66 167//69 168//31
f 134//66 136//63 166//64
f 132//40 168//31 138//28
f 160//69 138//28 168//31
f 135//44 113//38 167//69
f 167//69 113//38 137//67
f 137//67 160//69 167//69
f 168//31 167//69 160//69
f 140//69 127//64 128//65
f 128//65 139//68 140//69
f 163//73 159//15 164//57
f 159//15 161//34 164//57
f 162//72 163//73 164//57
f 162//72 164//57 165//66
f 154//69 149//64 150//65
f 154//69 150//65 153//70
f 156//67 151//64 152//65
f 156//67 152//65 155//71
f 130//10 129//12 137//67
f 160//69 137//67 129//12
f 137//67 122//63 121//59
f 137//67 121//59 130//10
f 120//6 114//14 130//10
f 121//59 120//6 130//10
f 134//66 168//31 132//40
f 166//64 136//63 135//44
f 166//64 135//44 167//69
f 165//66 157//64 158//17
f 165//66 158//17 162//72
f 103//26 101//38 96//37
f 101//38 138//28 96//37
f 106//6 112//11 100//44
f 113//38 100//44 94//40
f 113//38 94//40 104//26
f 101//38 109//60 105//14
f 109//60 97//19 105//14
f 131//6 105//14 97//19
f 113//38 110//60 114//14
f 110//60 112//11 114//14
f 106//6 114//14 112//11
f 131//6 97//19 138//28
f 96//37 138//28 97//19
f 109//60 101//38 103//26
