# Blender v2.78 (sub 0) OBJ File: ''
# www.blender.org
mtllib bookcase2.mtl
o tinker
v 16.407516 23.893303 30.794779
v 16.166399 25.518999 30.000000
v 16.428125 23.049978 30.790182
v 16.440895 22.528000 30.787399
v 17.680483 25.534306 30.793283
v 18.061789 25.541063 30.000000
v 17.609253 25.533476 30.793936
v 18.431999 25.262001 30.911121
v 17.265640 24.693153 30.962612
v 18.434839 25.260740 30.910995
v 18.698299 24.740002 30.899405
v 18.727570 24.682047 30.898117
v 18.743721 24.576000 30.897411
v 18.592648 25.544941 30.786032
v 18.549747 25.544441 30.786430
v 18.904501 20.480000 30.890558
v 17.661499 20.480000 30.945412
v 18.889277 20.039972 30.891254
v 19.798498 25.559000 30.776394
v 19.603350 25.559000 30.000000
v 19.549442 25.556097 30.778330
v 19.822380 24.576000 30.770767
v 19.702108 21.737051 30.000000
v 19.821932 24.594421 30.770864
v 19.806787 25.219278 30.774446
v 19.971998 18.431999 30.738392
v 19.796993 18.041000 30.000000
v 19.971647 18.446362 30.738466
v 19.940048 19.742113 30.745115
v 18.908531 25.548626 30.783092
v 19.981527 18.041000 30.736362
v 19.980366 18.088881 30.736631
v 18.592449 18.024397 30.746725
v 18.462059 18.022839 30.747833
v 19.835125 24.052279 30.767969
v 19.866676 22.756935 30.761177
v 19.872263 22.528000 30.760017
v 17.020536 21.731558 30.973610
v 17.020535 21.731533 30.973610
v 18.901054 23.400759 30.890543
v 17.038057 21.367147 30.972860
v 17.080709 20.480000 30.971035
v 19.980215 18.095074 30.736666
v 18.950762 21.817026 30.888441
v 17.170719 19.323578 30.967136
v 18.950819 21.818668 30.888437
v 18.928446 22.528000 30.889385
v 18.944960 22.001892 30.888685
v 18.431999 18.022478 30.748049
v 16.459240 21.778212 30.783401
v 16.360403 18.000000 30.000000
v 16.477659 21.024380 30.779289
v 16.490929 20.480000 30.776192
v 17.532164 25.187172 30.950823
v 18.388760 25.281214 30.913027
v 17.573042 25.262808 30.949015
v 18.002422 25.453747 30.930059
v 17.246431 24.576000 30.963467
v 17.238976 24.530476 30.963799
v 18.878912 23.688353 30.891502
v 16.386511 24.750542 30.799213
v 16.390266 24.596470 30.798342
v 16.390770 24.576000 30.798237
v 19.889315 21.829288 30.756483
v 19.911066 20.933659 30.751526
v 16.384001 24.853485 30.799795
v 16.745171 25.523401 30.800478
v 17.232298 25.529081 30.796932
v 17.454859 25.531675 30.795120
v 17.831646 25.536070 30.791899
v 18.766605 25.546970 30.784412
v 18.245861 25.540897 30.788681
v 17.994436 25.537968 30.790409
v 16.666672 25.522486 30.801050
v 17.126854 19.520241 30.969059
v 17.126856 19.520216 30.969059
v 17.150227 19.415455 30.968035
v 18.705748 18.931255 30.899418
v 17.296762 18.834959 30.961601
v 17.500128 18.443094 30.952650
v 17.459600 18.483435 30.954435
v 17.511274 18.431999 30.952158
v 17.263784 18.906322 30.963053
v 19.922100 20.480000 30.749086
v 17.985643 18.017143 30.751286
v 17.932446 18.016508 30.751766
v 18.048018 18.017889 30.750799
v 17.675144 18.013432 30.753992
v 17.554462 18.011990 30.754871
v 18.988100 18.029125 30.743864
v 17.992739 18.156519 30.930927
v 18.054050 18.185425 30.928219
v 17.751385 18.225088 30.941574
v 18.431999 18.403824 30.911528
v 18.404303 18.350548 30.912754
v 17.706291 18.237900 30.943563
v 17.706301 18.237890 30.943563
v 18.445107 18.429035 30.910948
v 18.291628 25.541431 30.788366
v 18.431999 25.543068 30.787346
v 18.368467 25.542328 30.787838
v 17.992922 18.156467 30.930918
v 16.534452 18.698141 30.766403
v 16.516047 19.449526 30.770325
v 16.540985 18.431999 30.765070
v 16.376995 25.140779 30.801420
v 16.367746 25.518999 30.803455
v 16.384001 25.519190 30.803326
v 17.729403 18.014080 30.753599
v 18.446646 18.431999 30.910881
v 16.545044 18.266663 30.764242
v 16.541098 18.427433 30.765047
v 16.596533 18.000538 30.762321
v 17.248283 18.008329 30.757063
v 16.551535 18.000000 30.762691
v 17.265606 24.693090 30.962614
v 18.895458 23.579065 30.890779
v 17.082077 23.573231 30.970781
v 17.047150 22.528000 30.972387
v 25.000000 105.000000 -6.000000
v 25.000000 104.300003 -6.000000
v 25.000000 104.300003 31.000000
v 25.000000 105.000000 31.000000
v -25.200001 3.000000 31.000000
v -25.200001 4.000000 31.000000
v -25.281000 3.000000 31.000000
v -22.281000 105.000000 31.000000
v -22.281000 105.000000 -6.000000
v -25.281000 105.000000 31.000000
v -25.200001 3.000000 -10.000000
v -25.281000 3.000000 -10.000000
v -25.281000 105.000000 -10.000000
v -25.200001 4.000000 33.000000
v -25.200001 0.000000 33.000000
v -25.200001 0.000000 -10.000000
v -22.281000 69.000000 31.000000
v -22.281000 72.000000 31.000000
v -22.281000 102.000000 31.000000
v -22.281000 104.300003 31.000000
v 25.000000 69.000000 31.000000
v 28.000000 105.000000 31.000000
v 25.000000 72.000000 31.000000
v 25.000000 33.000000 31.000000
v 28.000000 4.000000 31.000000
v 25.000000 36.000000 31.000000
v 25.000000 102.000000 31.000000
v 25.000000 102.000000 -6.000000
v 25.000000 72.000000 -6.000000
v 25.000000 69.000000 -6.000000
v 25.000000 36.000000 -6.000000
v -24.000000 4.000000 31.000000
v -24.000000 4.000000 33.000000
v -22.281000 104.300003 -6.000000
v -22.281000 72.000000 -6.000000
v -22.281000 102.000000 -6.000000
v -22.281000 36.000000 31.000000
v -22.281000 36.000000 -6.000000
v -22.281000 69.000000 -6.000000
v -22.281000 33.000000 31.000000
v 15.000000 4.000000 33.000000
v -22.281000 4.000000 31.000000
v -22.281000 4.000000 30.000000
v -22.281000 33.000000 30.000000
v -22.281000 4.000000 -6.000000
v -22.281000 33.000000 -6.000000
v -22.281000 33.000000 27.000000
v -22.281000 4.000000 27.000000
v 28.000000 0.000000 -10.000000
v 28.000000 0.000000 33.000000
v 28.000000 4.000000 33.000000
v 26.000000 4.000000 31.000000
v 25.000000 4.000000 31.000000
v 25.000000 4.000000 30.000000
v 25.000000 4.000000 27.000000
v 25.000000 4.000000 -6.000000
v 25.000000 33.000000 30.000000
v 25.000000 33.000000 27.000000
v 28.000000 105.000000 -10.000000
v 25.000000 33.000000 -6.000000
v 15.204000 24.451000 30.806999
v 18.476000 25.198999 31.974001
v 18.768999 24.618999 31.969000
v 20.806999 19.490999 30.737000
v 15.670000 17.465000 30.767000
v 16.583000 16.419001 30.754000
v 15.716000 17.396000 31.955000
v 18.930000 19.978001 31.943001
v 18.746000 18.870001 31.938999
v 18.042999 25.392000 31.978001
v 20.396999 17.820000 30.732000
v 20.954000 21.833000 30.747999
v 19.263000 27.191000 30.789000
v 18.936001 23.516001 31.962000
v 20.207001 26.246000 30.777000
v 20.768000 24.513000 30.763000
v 15.213000 19.195000 31.969000
v 15.167000 19.264999 30.780001
v 19.309000 27.121000 31.976999
v 20.253000 26.176001 31.965000
v 16.767000 27.160999 31.997999
v 17.974001 27.436001 31.990000
v 17.927999 27.506001 30.801001
v 16.721001 27.231001 30.809000
v 20.813999 24.443001 31.952000
v 19.466999 16.514999 30.732000
v 18.992001 21.756001 31.952000
v 17.165001 19.462999 31.955000
v 17.059000 21.673000 31.966999
v 15.000000 21.871000 30.795000
v 17.121000 23.514000 31.976000
v 17.305000 24.634001 31.980000
v 17.613001 25.202000 31.981001
v 18.812000 16.181000 30.736000
v 18.858000 16.111000 31.924000
v 17.981001 16.070000 30.742001
v 18.027000 16.000000 31.930000
v 15.250000 24.381001 31.995001
v 16.629000 16.349001 31.943001
v 21.000000 21.763000 31.936001
v 15.046000 21.801001 31.983000
v 15.950000 26.514000 30.812000
v 20.443001 17.750000 31.920000
v 20.853001 19.421000 31.924999
v 18.444000 18.291000 31.938000
v 19.513000 16.445000 31.920000
v 17.302000 18.849001 31.950001
v 18.032000 18.097000 31.941000
v 15.526000 25.516001 31.999001
v 15.480000 25.586000 30.811001
v 15.996000 26.444000 32.000000
v 17.745001 18.179001 31.943001
v 17.497999 18.424999 31.947001
vn 0.5773 0.5774 0.5774
vn -0.5774 0.5774 0.5774
vn -0.5773 -0.5774 0.5773
vn 0.5774 -0.5774 0.5774
vn -0.5774 0.5773 0.5774
vn -0.0258 0.7069 0.7069
vn -0.5773 -0.5774 0.5774
vn 0.5774 0.5773 0.5773
vn 0.7060 0.0552 0.7060
vn 0.5774 -0.5773 0.5774
vn 0.5774 0.5774 -0.5774
vn 0.5774 -0.5774 -0.5774
vn -0.5774 0.5774 -0.5774
vn -0.5774 -0.5774 -0.5774
vn -0.5773 0.5774 0.5773
vn -0.5774 0.5774 0.5773
vn -0.5773 -0.5773 0.5774
vn -0.5774 0.5773 0.5773
vn 0.5774 0.5774 0.5774
vn 0.5774 0.5774 0.5773
vn -0.5773 -0.5774 -0.5774
vn -0.5773 0.5773 -0.5774
vn -0.5774 -0.5774 0.5774
vn 0.5774 -0.5773 0.5773
vn 0.5773 0.5773 0.5774
vn 0.5773 -0.5775 0.5773
vn -0.5774 -0.5773 0.5774
vn -0.5774 -0.5774 0.5773
vn 0.0000 0.7071 0.7071
vn -0.7064 -0.0441 -0.7064
vn -0.7064 -0.0439 -0.7064
vn -0.0462 0.7063 -0.7064
vn -0.0444 0.7064 -0.7064
vn -0.5772 -0.5775 0.5774
vn 0.5874 -0.5717 0.5728
vn -0.5772 -0.5774 0.5774
vn -0.5853 -0.5612 0.5853
vn -0.6706 -0.3173 0.6706
vn -0.0466 0.7064 -0.7063
vn -0.7050 0.0768 0.7050
vn 0.2669 0.0004 0.9637
vn -0.6914 0.2100 0.6913
vn 0.5774 0.5774 -0.5773
vn -0.0427 0.7065 -0.7065
vn 0.7056 0.0666 -0.7055
vn 0.7055 0.0670 -0.7055
vn 0.7055 0.0678 -0.7055
vn 0.7056 0.0664 -0.7055
vn 0.7056 0.0662 -0.7056
vn 0.7056 0.0665 -0.7055
vn -0.0448 0.7064 -0.7064
vn 0.5773 -0.5774 -0.5774
vn 0.7056 0.0669 -0.7055
vn 0.0085 -0.7071 -0.7071
vn 0.0091 -0.7071 -0.7071
vn 0.7055 0.0665 -0.7056
vn 0.7055 0.0663 -0.7056
vn 0.7056 0.0660 -0.7056
vn 0.6912 -0.1044 0.7150
vn 0.7031 -0.0117 0.7110
vn -0.7053 -0.0694 0.7055
vn 0.7031 0.1063 0.7031
vn 0.7056 0.0663 -0.7055
vn -0.7056 0.0779 0.7043
vn 0.6365 0.4357 0.6365
vn -0.7073 0.0003 0.7069
vn -0.7054 -0.0695 0.7054
vn -0.7053 -0.0705 0.7054
vn 0.0105 -0.7071 -0.7071
vn -0.7064 -0.0440 -0.7064
vn -0.7064 -0.0437 -0.7064
vn -0.7064 -0.0433 -0.7064
vn 0.0622 -0.7057 0.7057
vn 0.6655 -0.3381 0.6655
vn 0.6655 -0.3382 0.6654
vn -0.6708 -0.3161 0.6709
vn -0.7064 -0.0434 -0.7065
vn -0.7064 -0.0446 -0.7064
vn 0.7055 0.0665 -0.7055
vn 0.7055 0.0668 -0.7055
vn -0.7065 -0.0434 -0.7064
vn -0.0421 0.7065 -0.7065
vn -0.0436 0.7064 -0.7064
vn -0.0434 0.7064 -0.7064
vn -0.0463 0.7064 -0.7063
vn -0.0466 0.7063 -0.7063
vn -0.0413 0.7065 -0.7065
vn -0.0437 0.7064 -0.7064
vn 0.6859 0.1174 0.7181
vn 0.6731 0.2824 0.6835
vn 0.6364 0.4358 0.6365
vn -0.5840 0.5638 0.5840
vn 0.5773 0.5774 0.5773
vn 0.5774 0.5773 0.5774
vn 0.5774 0.5772 0.5775
vn 0.5788 0.5745 0.5788
vn 0.7055 0.0667 -0.7055
vn 0.0077 -0.7071 -0.7071
vn 0.0063 -0.7071 -0.7071
vn 0.0096 -0.7071 -0.7071
vn 0.0102 -0.7071 -0.7071
vn 0.0103 -0.7071 -0.7071
vn 0.0100 -0.7071 -0.7071
vn 0.5806 0.5748 0.5766
vn 0.6210 0.5267 0.5805
vn 0.6209 0.5316 0.5761
vn -0.5773 0.5772 0.5775
vn -0.0432 0.7064 -0.7065
vn -0.0423 0.7065 -0.7065
vn -0.0907 0.7004 0.7079
vn -0.7064 -0.0445 -0.7064
vn -0.7064 -0.0438 -0.7064
vn -0.7064 -0.0436 -0.7064
vn -0.5775 0.5773 -0.5773
vn -0.0439 0.7064 -0.7064
vn 0.0084 -0.7071 -0.7071
vn -0.7064 -0.0444 -0.7064
vn 0.0098 -0.7071 -0.7071
vn -0.5774 -0.5774 -0.5773
vn 0.5864 -0.5732 0.5723
vn -0.6926 -0.2017 0.6926
vn 0.6903 -0.2169 0.6903
vn 0.7052 -0.0739 0.7052
vn -0.6643 0.3428 -0.6643
vn -0.5885 -0.5545 0.5885
vn 0.6739 -0.3027 -0.6739
vn -0.5774 -0.5773 -0.5773
vn -0.6917 0.2078 0.6917
vn -0.5830 0.5659 0.5830
vn 0.0012 -0.7071 0.7071
vn 0.7069 0.0236 -0.7069
vn 0.5773 0.5774 -0.5774
vn -0.6922 -0.2045 0.6922
vn 0.5773 0.5773 -0.5774
vn 0.6471 0.4031 -0.6471
vn -0.6588 -0.3633 0.6588
vn -0.6666 -0.3306 -0.6682
vn 0.0346 0.7067 0.7067
vn -0.0151 0.7070 -0.7070
vn -0.5773 0.5774 -0.5773
vn 0.6569 0.3699 0.6570
vn 0.5774 -0.5773 -0.5773
vn -0.7071 -0.0068 0.7071
vn 0.6792 0.2781 0.6792
vn 0.7071 0.0079 0.7071
vn -0.7067 0.0325 -0.7068
vn 0.6899 -0.2189 0.6900
vn 0.5773 -0.5774 0.5774
vn 0.5358 -0.5970 -0.5971
vn 0.5533 -0.5890 0.5890
vn -0.1460 -0.6995 -0.6995
vn -0.0976 -0.7037 0.7037
vn -0.6708 0.3163 0.6708
vn -0.5774 -0.5773 0.5773
vn 0.7071 -0.0086 0.7071
vn -0.7071 -0.0000 0.7071
vn 0.5773 -0.5773 0.5774
vn 0.6675 -0.3298 0.6676
vn -0.5773 0.5774 0.5774
vn 0.5779 0.5763 0.5779
vn -0.1543 0.6987 0.6986
vn -0.5773 0.5773 0.5774
usemtl material_2
s 1
f 162//1 173//2 51//3
f 163//4 162//1 51//3
f 163//4 51//3 2//5
f 6//6 176//7 2//5
f 20//8 176//7 6//6
f 163//4 2//5 176//7
f 176//7 23//9 27//10
f 23//9 176//7 20//8
f 51//3 173//2 27//10
f 176//7 27//10 173//2
f 167//11 166//12 174//13
f 177//14 174//13 166//12
usemtl material_1
f 120//15 121//16 122//16
f 120//15 122//16 123//2
f 124//17 125//18 126//3
f 127//19 128//20 129//16
f 130//21 124//17 126//3
f 130//21 126//3 131//14
f 132//22 131//14 126//3
f 132//22 126//3 129//16
f 125//18 124//17 133//2
f 134//23 133//2 124//17
f 134//23 124//17 135//14
f 130//21 135//14 124//17
f 129//16 126//3 125//18
f 125//18 136//24 129//16
f 137//25 138//26 129//16
f 138//26 139//25 129//16
f 132//22 129//16 128//20
f 140//27 141//20 142//5
f 143//27 144//20 145//5
f 146//28 147//23 148//2
f 146//28 148//2 142//5
f 140//27 149//23 150//2
f 140//27 150//2 145//5
f 146//28 142//5 141//20
f 151//29 125//18 133//2
f 151//29 133//2 152//29
f 133//2 134//23 152//29
f 130//21 131//14 132//22
f 127//19 129//16 139//25
f 127//19 139//25 153//19
f 127//19 153//19 128//20
f 137//25 154//19 155//4
f 137//25 155//4 138//26
f 156//25 136//24 125//18
f 156//25 157//19 158//4
f 156//25 158//4 136//24
f 159//24 156//25 125//18
f 137//25 129//16 136//24
f 147//23 155//4 154//19
f 149//23 158//4 157//19
f 155//4 147//23 138//26
f 146//28 138//26 147//23
f 146//28 139//25 138//26
f 152//29 134//23 160//29
f 151//29 152//29 161//1
f 160//29 161//1 152//29
f 125//18 151//29 159//24
f 161//1 159//24 151//29
f 162//1 163//4 159//24
f 162//1 159//24 161//1
f 164//19 165//4 166//12
f 164//19 166//12 167//11
f 168//12 169//4 135//14
f 160//29 134//23 169//4
f 160//29 169//4 170//19
f 170//19 169//4 144//20
f 168//12 144//20 169//4
f 171//29 144//20 143//27
f 160//29 170//19 171//29
f 144//20 171//29 170//19
f 134//23 135//14 169//4
f 135//14 130//21 168//12
f 160//29 171//29 172//18
f 172//18 173//2 160//29
f 161//1 160//29 162//1
f 173//2 162//1 160//29
f 174//13 175//2 167//11
f 164//19 167//11 175//2
f 143//27 172//18 171//29
f 173//2 172//18 176//7
f 143//27 176//7 172//18
f 174//13 177//14 175//2
f 141//20 140//27 144//20
f 178//11 120//15 141//20
f 168//12 178//11 144//20
f 141//20 144//20 178//11
f 145//5 144//20 140//27
f 122//16 146//28 141//20
f 123//2 122//16 141//20
f 120//15 178//11 128//20
f 123//2 141//20 120//15
f 132//22 128//20 178//11
f 128//20 121//16 120//15
f 179//23 164//19 175//2
f 177//14 179//23 175//2
f 128//20 153//19 121//16
f 139//25 121//16 153//19
f 145//5 150//2 157//19
f 136//24 158//4 149//23
f 147//23 154//19 148//2
f 157//19 150//2 149//23
f 168//12 130//21 178//11
f 163//4 176//7 159//24
f 143//27 159//24 176//7
f 177//14 166//12 165//4
f 179//23 177//14 165//4
f 164//19 179//23 165//4
f 132//22 178//11 130//21
f 121//16 139//25 122//16
f 148//2 154//19 142//5
f 137//25 142//5 154//19
f 145//5 157//19 156//25
f 143//27 145//5 159//24
f 156//25 159//24 145//5
f 136//24 149//23 140//27
f 137//25 136//24 140//27
f 137//25 140//27 142//5
f 139//25 146//28 122//16
usemtl material_0
f 1//30 2//5 3//31
f 3//31 2//5 4//30
f 5//32 6//6 7//33
f 8//34 9//35 10//36
f 11//27 10//36 9//35
f 12//37 11//27 9//35
f 12//37 9//35 13//38
f 14//39 6//6 15//33
f 16//40 17//41 18//42
f 19//43 20//8 21//44
f 22//45 23//9 24//46
f 25//47 24//46 23//9
f 19//43 25//47 20//8
f 26//48 27//10 28//49
f 29//50 28//49 27//10
f 20//8 6//6 30//51
f 21//44 20//8 30//51
f 27//10 23//9 29//50
f 31//52 27//10 32//53
f 33//54 34//55 27//10
f 23//9 22//45 35//56
f 35//56 36//57 23//9
f 37//58 23//9 36//57
f 38//59 39//60 40//61
f 39//60 41//62 40//61
f 17//41 41//62 42//62
f 32//53 27//10 43//63
f 44//64 17//41 16//40
f 17//41 45//65 18//42
f 44//64 46//66 17//41
f 47//67 17//41 48//68
f 49//69 27//10 34//55
f 17//41 40//61 41//62
f 50//70 51//3 52//71
f 4//30 2//5 50//70
f 53//72 52//71 51//3
f 54//24 55//3 56//10
f 9//35 55//3 54//24
f 8//34 55//3 9//35
f 57//73 56//10 55//3
f 58//74 59//75 60//76
f 61//77 2//5 62//70
f 48//68 17//41 46//66
f 51//3 50//70 2//5
f 1//30 63//78 2//5
f 64//79 23//9 37//58
f 65//80 23//9 64//79
f 61//77 66//81 2//5
f 6//6 67//82 68//83
f 6//6 68//83 69//84
f 70//85 6//6 5//32
f 69//84 7//33 6//6
f 6//6 2//5 67//82
f 71//86 30//51 6//6
f 14//39 71//86 6//6
f 72//87 6//6 73//88
f 73//88 6//6 70//85
f 74//44 67//82 2//5
f 42//62 75//89 17//41
f 75//89 76//90 17//41
f 45//65 17//41 77//91
f 78//92 18//42 79//93
f 80//94 78//92 81//93
f 79//93 81//93 78//92
f 82//95 78//92 80//94
f 83//96 79//93 18//42
f 45//65 83//96 18//42
f 84//97 29//50 23//9
f 26//48 43//63 27//10
f 65//80 84//97 23//9
f 23//9 20//8 25//47
f 85//98 86//99 51//3
f 49//69 87//100 27//10
f 88//101 89//102 51//3
f 90//103 33//54 27//10
f 31//52 90//103 27//10
f 91//104 92//5 93//93
f 92//5 94//5 93//93
f 95//15 94//5 92//5
f 96//105 97//106 94//5
f 98//107 82//95 94//5
f 96//105 94//5 82//95
f 72//87 99//87 6//6
f 100//108 15//33 6//6
f 101//109 100//108 6//6
f 99//87 101//109 6//6
f 77//91 17//41 76//90
f 102//110 92//5 91//104
f 103//111 104//112 51//3
f 105//78 103//111 51//3
f 93//93 94//5 97//106
f 106//113 2//5 66//81
f 107//114 2//5 106//113
f 104//112 53//72 51//3
f 74//44 2//5 108//115
f 107//114 108//115 2//5
f 51//3 27//10 87//100
f 85//98 51//3 87//100
f 109//116 51//3 86//99
f 88//101 51//3 109//116
f 63//78 62//70 2//5
f 78//92 82//95 110//107
f 98//107 110//107 82//95
f 111//117 112//111 51//3
f 113//116 51//3 114//118
f 114//118 51//3 89//102
f 51//3 115//119 111//117
f 105//78 51//3 112//111
f 51//3 113//116 115//119
f 116//120 58//74 60//76
f 9//35 116//120 60//76
f 13//38 9//35 60//76
f 117//121 60//76 118//122
f 40//61 117//121 118//122
f 118//122 119//123 40//61
f 119//123 38//59 40//61
f 17//41 47//67 40//61
f 59//75 118//122 60//76
usemtl material_3
f 1//30 180//124 63//78
f 181//28 8//34 10//36
f 11//27 12//37 182//125
f 11//27 182//125 181//28
f 10//36 11//27 181//28
f 29//50 84//97 183//126
f 184//119 185//127 186//28
f 18//42 78//92 187//128
f 188//129 187//128 78//92
f 89//102 185//127 114//118
f 55//3 189//130 57//73
f 13//38 182//125 12//37
f 78//92 110//107 188//129
f 29//50 183//126 28//49
f 190//52 28//49 183//126
f 191//131 183//126 84//97
f 71//86 192//132 30//51
f 15//33 192//132 14//39
f 71//86 14//39 192//132
f 26//48 28//49 190//52
f 60//76 117//121 193//133
f 60//76 193//133 182//125
f 21//44 30//51 192//132
f 21//44 192//132 194//134
f 21//44 194//134 19//43
f 13//38 60//76 182//125
f 194//134 195//135 19//43
f 25//47 19//43 195//135
f 117//121 40//61 193//133
f 193//133 40//61 47//67
f 196//136 197//137 184//119
f 184//119 186//28 196//136
f 181//28 182//125 198//8
f 24//46 195//135 22//45
f 35//56 22//45 195//135
f 199//94 198//8 182//125
f 35//56 195//135 36//57
f 200//16 201//138 202//139
f 200//16 202//139 203//140
f 184//119 113//116 185//127
f 204//141 182//125 193//133
f 111//117 115//119 184//119
f 190//52 205//142 31//52
f 190//52 31//52 32//53
f 90//103 31//52 205//142
f 43//63 26//48 190//52
f 44//64 16//40 206//143
f 206//143 16//40 187//128
f 32//53 43//63 190//52
f 205//142 33//54 90//103
f 18//42 187//128 16//40
f 15//33 100//108 202//139
f 192//132 15//33 202//139
f 41//62 207//144 42//62
f 208//145 207//144 41//62
f 208//145 41//62 39//60
f 209//146 52//71 197//137
f 39//60 38//59 208//145
f 198//8 201//138 181//28
f 209//146 4//30 50//70
f 207//144 196//136 186//28
f 209//146 50//70 52//71
f 210//147 59//75 211//148
f 211//148 58//74 116//120
f 212//24 211//148 54//24
f 212//24 54//24 56//10
f 9//35 54//24 211//148
f 9//35 211//148 116//120
f 47//67 48//68 193//133
f 213//149 205//142 214//150
f 62//70 180//124 61//77
f 215//151 213//149 216//152
f 46//66 44//64 206//143
f 211//148 217//153 210//147
f 214//150 216//152 213//149
f 216//152 218//154 215//151
f 206//143 193//133 48//68
f 48//68 46//66 206//143
f 215//151 218//154 185//127
f 56//10 189//130 212//24
f 218//154 186//28 185//127
f 34//55 33//54 213//149
f 189//130 56//10 57//73
f 191//131 84//97 65//80
f 36//57 191//131 37//58
f 85//98 87//100 215//151
f 206//143 187//128 219//155
f 206//143 219//155 193//133
f 197//137 196//136 220//156
f 7//33 202//139 5//32
f 74//44 221//140 67//82
f 68//83 67//82 221//140
f 189//130 55//3 181//28
f 197//137 220//156 209//146
f 8//34 181//28 55//3
f 205//142 213//149 33//54
f 222//157 187//128 188//129
f 219//155 187//128 223//158
f 73//88 70//85 202//139
f 70//85 5//32 202//139
f 72//87 73//88 202//139
f 224//159 214//150 225//148
f 69//84 68//83 203//140
f 224//159 225//148 188//129
f 188//129 225//148 222//157
f 202//139 99//87 72//87
f 187//128 222//157 223//158
f 7//33 69//84 202//139
f 203//140 202//139 69//84
f 226//160 79//93 83//96
f 201//138 212//24 189//130
f 83//96 45//65 226//160
f 77//91 226//160 45//65
f 101//109 202//139 100//108
f 220//156 217//153 209//146
f 99//87 202//139 101//109
f 226//160 77//91 207//144
f 180//124 209//146 217//153
f 76//90 207//144 77//91
f 212//24 201//138 200//16
f 189//130 181//28 201//138
f 199//94 204//141 194//134
f 199//94 182//125 204//141
f 224//159 92//5 227//161
f 102//110 227//161 92//5
f 217//153 228//162 180//124
f 227//161 214//150 224//159
f 229//140 180//124 228//162
f 198//8 202//139 201//138
f 207//144 75//89 42//62
f 228//162 230//159 229//140
f 221//140 229//140 230//159
f 75//89 207//144 76//90
f 221//140 200//16 203//140
f 93//93 227//161 91//104
f 192//132 202//139 198//8
f 227//161 102//110 91//104
f 221//140 230//159 200//16
f 198//8 199//94 194//134
f 198//8 194//134 192//132
f 197//137 104//112 103//111
f 184//119 197//137 103//111
f 227//161 93//93 231//1
f 93//93 97//106 231//1
f 52//71 53//72 197//137
f 104//112 197//137 53//72
f 68//83 221//140 203//140
f 103//111 105//78 184//119
f 61//77 180//124 66//81
f 66//81 180//124 106//113
f 106//113 229//140 107//114
f 208//145 196//136 207//144
f 81//93 232//94 80//94
f 80//94 232//94 231//1
f 74//44 108//115 221//140
f 226//160 207//144 186//28
f 97//106 96//105 231//1
f 229//140 221//140 107//114
f 108//115 107//114 221//140
f 80//94 231//1 82//95
f 96//105 82//95 231//1
f 222//157 190//52 223//158
f 49//69 34//55 213//149
f 49//69 213//149 87//100
f 230//159 212//24 200//16
f 183//126 223//158 190//52
f 230//159 211//148 212//24
f 213//149 215//151 87//100
f 109//116 86//99 215//151
f 85//98 215//151 86//99
f 228//162 211//148 230//159
f 88//101 109//116 215//151
f 211//148 228//162 217//153
f 229//140 106//113 180//124
f 222//157 205//142 190//52
f 214//150 227//161 216//152
f 209//146 180//124 3//31
f 1//30 3//31 180//124
f 225//148 205//142 222//157
f 3//31 4//30 209//146
f 194//134 204//141 195//135
f 62//70 63//78 180//124
f 191//131 195//135 219//155
f 232//94 79//93 226//160
f 204//141 219//155 195//135
f 225//148 214//150 205//142
f 208//145 210//147 220//156
f 208//145 220//156 196//136
f 24//46 25//47 195//135
f 232//94 81//93 79//93
f 191//131 65//80 64//79
f 95//15 224//159 94//5
f 188//129 98//107 224//159
f 217//153 220//156 210//147
f 94//5 224//159 98//107
f 64//79 37//58 191//131
f 191//131 219//155 183//126
f 223//158 183//126 219//155
f 191//131 36//57 195//135
f 105//78 112//111 184//119
f 110//107 98//107 188//129
f 114//118 185//127 113//116
f 92//5 224//159 95//15
f 185//127 89//102 215//151
f 215//151 89//102 88//101
f 204//141 193//133 219//155
f 112//111 111//117 184//119
f 184//119 115//119 113//116
f 38//59 119//123 208//145
f 118//122 210//147 119//123
f 210//147 208//145 119//123
f 232//94 186//28 218//154
f 216//152 227//161 231//1
f 118//122 59//75 210//147
f 218//154 216//152 231//1
f 58//74 211//148 59//75
f 231//1 232//94 218//154
f 232//94 226//160 186//28
