# Blender v2.78 (sub 0) OBJ File: ''
# www.blender.org
mtllib bookcase.mtl
o tinker
v -35.000000 31.000000 7.000000
v -35.000000 29.000000 7.000000
v -11.000000 29.000000 7.000000
v -35.000000 29.000000 5.000000
v -11.000000 29.000000 5.000000
v -11.000000 29.000000 3.000000
v -35.000000 29.000000 3.000000
v -35.000000 29.000000 -30.500000
v -11.000000 29.000000 -30.500000
v -35.000000 3.000000 7.000000
v -38.000000 0.000000 7.000000
v -11.000000 3.000000 7.000000
v -11.000000 3.000000 5.000000
v -35.000000 3.000000 5.000000
v -35.000000 3.000000 -30.500000
v -35.000000 3.000000 3.000000
v -11.000000 3.000000 3.000000
v -11.000000 3.000000 -30.500000
v -35.000000 21.000000 7.000000
v -11.000000 21.000000 7.000000
v -11.000000 21.000000 5.000000
v -35.000000 21.000000 5.000000
v -11.000000 20.083000 7.000000
v -35.000000 20.083000 7.000000
v -35.000000 20.083000 5.000000
v -11.000000 20.083000 5.000000
v -35.000000 10.917000 7.000000
v -11.000000 10.917000 7.000000
v -11.000000 10.917000 5.000000
v -35.000000 10.917000 5.000000
v -11.000000 10.000000 7.000000
v -35.000000 10.000000 7.000000
v -35.000000 10.000000 5.000000
v -11.000000 10.000000 5.000000
v -8.000000 3.000000 7.000000
v -8.000000 29.000000 7.000000
v -11.000000 21.000000 -13.000000
v -35.000000 21.000000 -13.000000
v -35.000000 21.000000 3.000000
v -11.000000 21.000000 3.000000
v -35.000000 20.083000 -13.000000
v -11.000000 20.083000 -13.000000
v -11.000000 20.083000 3.000000
v -35.000000 20.083000 3.000000
v -11.000000 10.917000 -13.000000
v -35.000000 10.917000 -13.000000
v -35.000000 10.917000 3.000000
v -11.000000 10.917000 3.000000
v -35.000000 10.000000 -13.000000
v -11.000000 10.000000 -13.000000
v -11.000000 10.000000 3.000000
v -35.000000 10.000000 3.000000
v 28.000000 31.000000 7.000000
v 31.000000 103.000000 7.000000
v 28.000000 100.000000 7.000000
v 28.000000 79.000000 7.000000
v 28.000000 57.000000 7.000000
v 28.000000 55.000000 7.000000
v 31.000000 0.000000 7.000000
v 28.000000 77.000000 7.000000
v 28.000000 29.000000 7.000000
v 28.000000 3.000000 7.000000
v -8.000000 3.000000 5.000000
v -3.490000 18.798000 6.000000
v -4.671000 19.082001 6.000000
v -3.668000 18.493999 6.000000
v -3.246000 18.900000 6.000000
v -3.735000 19.941999 6.000000
v -2.417000 19.816999 6.000000
v -3.243000 20.000000 6.000000
v -3.076000 18.857000 6.000000
v -4.122000 19.766001 6.000000
v -2.930000 18.728001 6.000000
v -2.814000 18.504999 6.000000
v -1.877000 19.268000 6.000000
v -4.913000 18.205000 6.000000
v -1.601000 15.603000 6.000000
v -1.764000 15.007000 6.000000
v -1.764000 15.007000 5.000000
v -1.601000 15.603000 5.000000
v -2.042000 14.520000 6.000000
v -2.009496 14.576940 5.000000
v -2.042000 14.520000 5.000000
v -2.497000 14.144000 6.000000
v -2.497000 14.144000 5.000000
v -3.211000 14.000000 6.000000
v -3.211000 14.000000 5.000000
v -3.710301 14.104417 5.000000
v -4.000000 14.165000 6.000000
v -4.000000 14.165000 5.000000
v -4.096000 14.250334 5.000000
v -2.707000 16.056999 6.000000
v -2.707000 16.056999 5.000000
v -2.816000 15.470000 5.000000
v -2.816000 15.470000 6.000000
v -2.998000 15.172000 5.000000
v -2.998000 15.172000 6.000000
v -3.252000 15.072000 5.000000
v -3.252000 15.072000 6.000000
v -3.508000 15.174000 5.000000
v -3.508000 15.174000 6.000000
v -3.681000 15.478000 6.000000
v -3.681000 15.478000 5.000000
v -3.780000 16.056000 6.000000
v -3.780000 16.056000 5.000000
v -4.558000 14.661000 5.000000
v -4.558000 14.661000 6.000000
v -4.889000 15.570000 6.000000
v -4.889000 15.570000 5.000000
v -38.000000 103.000000 7.000000
v -38.000000 103.000000 -33.500000
v -38.000000 0.000000 -33.500000
v -35.000000 100.000000 7.000000
v -35.000000 79.000000 7.000000
v -35.000000 77.000000 7.000000
v -35.000000 57.000000 7.000000
v -35.000000 55.000000 7.000000
v -35.000000 79.000000 -30.500000
v -35.000000 100.000000 -30.500000
v -35.000000 57.000000 -30.500000
v -35.000000 77.000000 -30.500000
v -35.000000 31.000000 -30.500000
v -35.000000 55.000000 -30.500000
v 28.000000 55.000000 -30.500000
v 28.000000 31.000000 -30.500000
v -8.000000 29.000000 5.000000
v 28.000000 29.000000 5.000000
v 28.000000 100.000000 -30.500000
v 28.000000 79.000000 -30.500000
v -8.000000 29.000000 -30.500000
v 28.000000 29.000000 -30.500000
v 28.000000 29.000000 2.000000
v 28.000000 57.000000 -30.500000
v 28.000000 77.000000 -30.500000
v -8.000000 29.000000 2.000000
v 31.000000 0.000000 -33.500000
v -8.000000 3.000000 2.000000
v -8.000000 3.000000 -30.500000
v 31.000000 103.000000 -33.500000
v -1.481000 16.955999 6.000000
v -1.580000 18.323999 6.000000
v -2.670000 17.024000 6.000000
v -2.734000 18.183001 6.000000
v -3.813000 16.980000 6.000000
v -5.000000 16.976000 6.000000
v -3.777000 17.913000 6.000000
v 28.000000 3.000000 -30.500000
v 28.000000 3.000000 5.000000
v 28.000000 3.000000 2.000000
v -4.671000 19.082001 5.000000
v -4.850361 18.431999 5.000000
v -4.551948 19.230328 5.000000
v -4.122000 19.766001 5.000000
v -4.110639 19.771168 5.000000
v -3.735000 19.941999 5.000000
v -3.243000 20.000000 5.000000
v -3.182075 19.986502 5.000000
v -2.417000 19.816999 5.000000
v -1.877000 19.268000 5.000000
v -3.668000 18.493999 5.000000
v -3.490000 18.798000 5.000000
v -3.246000 18.900000 5.000000
v -3.076000 18.857000 5.000000
v -2.930000 18.728001 5.000000
v -2.814000 18.504999 5.000000
v -2.795863 18.431999 5.000000
v -4.913000 18.205000 5.000000
v -5.000000 16.976000 5.000000
v -1.580000 18.323999 5.000000
v -1.481000 16.955999 5.000000
v -3.813000 16.980000 5.000000
v -3.777000 17.913000 5.000000
v -2.734000 18.183001 5.000000
v -2.670000 17.024000 5.000000
vn 0.5774 0.5773 0.5773
vn 0.5774 -0.5773 0.5773
vn -0.5774 -0.5774 0.5773
vn 0.5774 -0.5774 0.5774
vn -0.5774 -0.5774 0.5774
vn -0.5774 -0.5774 -0.5774
vn 0.5774 -0.5774 -0.5774
vn 0.5773 0.5774 0.5773
vn -0.5773 -0.5773 0.5774
vn -0.5774 0.5774 0.5773
vn -0.5774 0.5774 0.5774
vn 0.5774 0.5774 0.5774
vn 0.5774 0.5774 -0.5774
vn -0.5774 0.5774 -0.5774
vn 0.5774 0.5774 0.5773
vn -0.5774 -0.5773 0.5773
vn 0.5773 -0.5773 0.5774
vn 0.5773 0.5773 0.5774
vn -0.5773 0.5773 0.5774
vn 0.5773 0.5774 0.5774
vn 0.5773 -0.5774 0.5773
vn -0.5774 0.5772 -0.5774
vn 0.5773 0.5774 -0.5773
vn 0.5774 -0.5773 -0.5774
vn -0.5774 -0.5774 -0.5773
vn -0.5774 0.5773 -0.5774
vn 0.5774 0.5774 -0.5773
vn 0.5773 -0.5773 -0.5774
vn -0.5773 -0.5774 -0.5773
vn -0.5773 -0.5774 0.5773
vn -0.5773 0.5774 0.5773
vn -0.5774 0.5773 0.5774
vn -0.5774 -0.5773 0.5774
vn -0.5773 0.5774 0.5774
vn 0.1542 -0.6987 0.6986
vn -0.5081 0.6091 0.6090
vn 0.1096 0.7028 0.7029
vn -0.5773 -0.5774 0.5774
vn -0.6623 0.3502 0.6623
vn 0.6585 -0.3643 0.6585
vn 0.5773 -0.5774 0.5774
vn 0.5774 -0.5773 0.5774
vn -0.0078 -0.7071 0.7071
vn -0.4139 -0.6437 0.6437
vn -0.6868 0.2382 0.6868
vn -0.5774 0.5773 0.5773
vn 0.0042 0.7071 0.7071
vn 0.6895 0.2215 0.6895
vn -0.6406 -0.4235 0.6406
vn 0.5775 -0.5773 0.5773
vn 0.7070 -0.0179 0.7070
vn 0.6534 0.3821 0.6535
vn -0.7070 -0.0188 0.7070
vn -0.6717 -0.3126 0.6717
vn 0.7071 -0.0032 0.7071
vn -0.7071 -0.0090 0.7071
vn 0.6864 -0.2404 0.6864
vn -0.6088 0.5087 0.6088
vn -0.5081 0.6090 0.6090
vn 0.4331 0.6373 0.6373
vn 0.5774 -0.5774 0.5773
vn -0.6233 -0.4722 0.6233
vn 0.6534 0.3821 0.6534
usemtl material_0
s 1
f 1//1 2//2 3//3
f 3//3 2//2 4//4
f 3//3 4//4 5//5
f 6//6 7//7 8//4
f 6//6 8//4 9//5
f 10//8 11//9 12//10
f 13//11 14//12 10//8
f 13//11 10//8 12//10
f 15//12 16//13 17//14
f 15//12 17//14 18//11
f 19//15 20//10 21//11
f 19//15 21//11 22//12
f 23//16 24//17 25//4
f 23//16 25//4 26//5
f 19//15 24//17 23//16
f 19//15 23//16 20//10
f 27//18 28//19 29//11
f 27//18 29//11 30//12
f 31//9 32//17 33//4
f 31//9 33//4 34//5
f 27//18 32//17 31//9
f 27//18 31//9 28//19
f 5//5 21//11 20//10
f 5//5 20//10 3//3
f 28//19 23//16 26//5
f 28//19 26//5 29//11
f 12//10 31//9 34//5
f 12//10 34//5 13//11
f 35//20 36//21 23//16
f 28//19 35//20 23//16
f 31//9 35//20 28//19
f 20//10 23//16 36//21
f 37//22 38//23 39//13
f 37//22 39//13 40//14
f 41//24 42//25 43//6
f 41//24 43//6 44//7
f 37//22 42//25 41//24
f 37//22 41//24 38//23
f 45//26 46//27 47//13
f 45//26 47//13 48//14
f 49//28 50//29 51//6
f 49//28 51//6 52//7
f 45//26 50//29 49//28
f 45//26 49//28 46//27
f 15//12 9//5 8//4
f 9//5 15//12 18//11
f 40//14 6//6 37//22
f 9//5 37//22 6//6
f 9//5 18//11 42//25
f 43//6 42//25 45//26
f 43//6 45//26 48//14
f 42//25 37//22 9//5
f 18//11 17//14 50//29
f 51//6 50//29 17//14
f 45//26 42//25 18//11
f 50//29 45//26 18//11
f 31//9 12//10 35//20
f 3//3 20//10 36//21
f 53//10 1//1 36//21
f 54//15 55//30 56//31
f 57//32 58//33 54//15
f 58//33 53//10 59//17
f 59//17 54//15 58//33
f 56//31 60//33 54//15
f 60//33 57//32 54//15
f 61//3 62//32 59//17
f 59//17 53//10 61//3
f 35//20 62//32 63//18
f 62//32 35//20 59//17
f 11//9 59//17 35//20
f 64//17 65//34 66//21
f 67//35 68//36 64//17
f 69//15 70//37 71//9
f 68//36 72//10 64//17
f 65//34 64//17 72//10
f 73//38 69//15 71//9
f 74//9 75//1 73//38
f 67//35 71//9 70//37
f 68//36 67//35 70//37
f 69//15 73//38 75//1
f 65//34 76//39 66//21
f 77//40 78//41 79//2
f 77//40 79//2 80//40
f 78//41 81//42 82//41
f 78//41 82//41 79//2
f 82//41 81//42 83//17
f 81//42 84//17 85//21
f 81//42 85//21 83//17
f 84//17 86//43 85//21
f 85//21 86//43 87//43
f 88//44 87//43 86//43
f 88//44 86//43 89//33
f 88//44 89//33 90//30
f 89//33 91//33 90//30
f 92//45 93//45 94//31
f 92//45 94//31 95//46
f 95//46 94//31 96//46
f 95//46 96//46 97//34
f 97//34 96//46 98//47
f 97//34 98//47 99//47
f 99//47 98//47 100//1
f 99//47 100//1 101//8
f 102//15 101//8 100//1
f 102//15 100//1 103//15
f 104//48 102//15 103//15
f 104//48 103//15 105//48
f 106//30 91//33 107//9
f 89//33 107//9 91//33
f 108//49 109//49 106//30
f 108//49 106//30 107//9
f 110//10 111//14 11//9
f 112//6 11//9 111//14
f 113//50 110//10 114//20
f 115//42 110//10 116//15
f 110//10 11//9 117//2
f 110//10 117//2 116//15
f 115//42 114//20 110//10
f 32//17 27//18 11//9
f 27//18 24//17 11//9
f 19//15 2//2 11//9
f 2//2 1//1 11//9
f 24//17 19//15 11//9
f 1//1 117//2 11//9
f 10//8 32//17 11//9
f 113//50 114//20 118//12
f 113//50 118//12 119//4
f 115//42 116//15 120//12
f 115//42 120//12 121//4
f 117//2 1//1 122//12
f 117//2 122//12 123//4
f 2//2 19//15 22//12
f 2//2 22//12 4//4
f 24//17 27//18 30//12
f 24//17 30//12 25//4
f 32//17 10//8 14//12
f 32//17 14//12 33//4
f 7//7 38//23 8//4
f 39//13 38//23 7//7
f 44//7 47//13 41//24
f 47//13 46//27 41//24
f 15//12 41//24 46//27
f 38//23 41//24 8//4
f 15//12 8//4 41//24
f 16//13 15//12 49//28
f 16//13 49//28 52//7
f 46//27 49//28 15//12
f 124//5 125//11 53//10
f 124//5 53//10 58//33
f 126//42 127//9 61//3
f 128//5 119//4 129//11
f 130//4 131//5 132//6
f 118//12 56//31 129//11
f 116//15 57//32 133//11
f 125//11 122//12 53//10
f 122//12 125//11 124//5
f 58//33 117//2 124//5
f 116//15 58//33 57//32
f 60//33 115//42 134//5
f 1//1 53//10 122//12
f 132//6 135//7 130//4
f 61//3 53//10 36//21
f 3//3 36//21 1//1
f 59//17 11//9 136//7
f 112//6 136//7 11//9
f 35//20 12//10 11//9
f 36//21 35//20 63//18
f 36//21 63//18 126//42
f 130//4 135//7 137//13
f 130//4 137//13 138//12
f 110//10 139//13 111//14
f 54//15 139//13 110//10
f 119//4 118//12 129//11
f 55//30 113//50 119//4
f 110//10 113//50 55//30
f 110//10 55//30 54//15
f 114//20 56//31 118//12
f 133//11 134//5 120//12
f 121//4 120//12 134//5
f 112//6 111//14 139//13
f 116//15 133//11 120//12
f 124//5 123//4 122//12
f 123//4 124//5 117//2
f 58//33 116//15 117//2
f 139//13 136//7 112//6
f 121//4 134//5 115//42
f 60//33 56//31 115//42
f 114//20 115//42 56//31
f 140//51 141//52 142//53
f 143//54 142//53 141//52
f 74//9 143//54 141//52
f 74//9 141//52 75//1
f 144//55 145//56 104//48
f 108//49 104//48 145//56
f 145//56 144//55 146//57
f 146//57 66//21 76//39
f 145//56 146//57 76//39
f 95//46 77//40 92//45
f 97//34 81//42 95//46
f 77//40 140//51 92//45
f 142//53 92//45 140//51
f 86//43 84//17 99//47
f 81//42 78//41 95//46
f 77//40 95//46 78//41
f 101//8 89//33 99//47
f 97//34 99//47 84//17
f 81//42 97//34 84//17
f 108//49 107//9 102//15
f 104//48 108//49 102//15
f 86//43 99//47 89//33
f 89//33 101//8 107//9
f 101//8 102//15 107//9
f 138//12 147//11 131//5
f 138//12 131//5 130//4
f 62//32 61//3 127//9
f 148//19 62//32 127//9
f 131//5 147//11 149//14
f 131//5 149//14 132//6
f 148//19 63//18 62//32
f 137//13 149//14 138//12
f 147//11 138//12 149//14
f 54//15 59//17 136//7
f 136//7 139//13 54//15
f 128//5 129//11 56//31
f 128//5 56//31 55//30
f 119//4 128//5 55//30
f 134//5 133//11 57//32
f 134//5 57//32 60//33
f 61//3 36//21 126//42
f 65//34 150//31 151//58
f 65//34 152//10 150//31
f 72//10 153//34 152//10
f 72//10 152//10 65//34
f 153//34 72//10 154//34
f 68//36 154//34 72//10
f 68//36 155//59 154//34
f 68//36 156//37 155//59
f 70//37 156//37 68//36
f 70//37 69//15 157//60
f 70//37 157//60 156//37
f 157//60 69//15 158//15
f 69//15 75//1 159//18
f 69//15 159//18 158//15
f 64//17 66//21 160//2
f 64//17 160//2 161//61
f 67//35 64//17 161//61
f 67//35 161//61 162//35
f 71//9 67//35 162//35
f 71//9 162//35 163//16
f 73//38 71//9 163//16
f 73//38 163//16 164//33
f 73//38 164//33 165//9
f 73//38 165//9 74//9
f 74//9 165//9 166//62
f 76//39 167//39 168//56
f 76//39 168//56 145//56
f 151//58 167//39 76//39
f 151//58 76//39 65//34
f 169//63 159//18 141//52
f 75//1 141//52 159//18
f 141//52 140//51 170//51
f 141//52 170//51 169//63
f 109//49 108//49 168//56
f 145//56 168//56 108//49
f 146//57 144//55 171//55
f 146//57 171//55 172//57
f 172//57 160//2 146//57
f 66//21 146//57 160//2
f 166//62 173//54 143//54
f 166//62 143//54 74//9
f 143//54 173//54 174//53
f 143//54 174//53 142//53
f 142//53 174//53 93//45
f 142//53 93//45 92//45
f 144//55 104//48 171//55
f 105//48 171//55 104//48
f 80//40 170//51 77//40
f 140//51 77//40 170//51
usemtl material_1
f 4//4 22//12 21//11
f 4//4 21//11 5//5
f 26//5 25//4 30//12
f 26//5 30//12 29//11
f 34//5 33//4 14//12
f 34//5 14//12 13//11
f 6//6 40//14 39//13
f 6//6 39//13 7//7
f 44//7 43//6 48//14
f 44//7 48//14 47//13
f 52//7 51//6 17//14
f 52//7 17//14 16//13
f 85//21 148//19 83//17
f 87//43 63//18 85//21
f 90//30 63//18 88//44
f 98//47 96//46 100//1
f 103//15 100//1 96//46
f 96//46 94//31 103//15
f 94//31 93//45 103//15
f 105//48 103//15 93//45
f 106//30 63//18 91//33
f 90//30 91//33 63//18
f 63//18 106//30 109//49
f 126//42 158//15 127//9
f 109//49 168//56 63//18
f 126//42 63//18 168//56
f 150//31 152//10 126//42
f 83//17 148//19 82//41
f 87//43 88//44 63//18
f 63//18 148//19 85//21
f 127//9 170//51 148//19
f 135//7 132//6 137//13
f 149//14 137//13 132//6
f 157//60 126//42 156//37
f 126//42 151//58 150//31
f 153//34 126//42 152//10
f 155//59 126//42 154//34
f 153//34 154//34 126//42
f 155//59 156//37 126//42
f 126//42 157//60 158//15
f 159//18 127//9 158//15
f 159//18 169//63 127//9
f 161//61 160//2 162//35
f 163//16 162//35 160//2
f 164//33 163//16 160//2
f 165//9 164//33 160//2
f 166//62 165//9 160//2
f 151//58 126//42 167//39
f 168//56 167//39 126//42
f 127//9 169//63 170//51
f 166//62 172//57 173//54
f 174//53 173//54 172//57
f 160//2 172//57 166//62
f 172//57 171//55 174//53
f 93//45 174//53 171//55
f 93//45 171//55 105//48
f 80//40 148//19 170//51
f 82//41 148//19 79//2
f 79//2 148//19 80//40
